<?xml version="1.0" encoding="utf-8"?>
<!-- Generator: Adobe Illustrator 22.1.0, SVG Export Plug-In . SVG Version: 6.00 Build 0)  -->
<svg version="1.1" id="Layer_1" xmlns="http://www.w3.org/2000/svg" xmlns:xlink="http://www.w3.org/1999/xlink" x="0px" y="0px"
	 viewBox="0 0 247 247" style="enable-background:new 0 0 247 247;" xml:space="preserve">
<style type="text/css">
	.st0{opacity:0.5;fill:#8FBAC0;enable-background:new    ;}
	.st1{fill:url(#Shape_1_);}
	.st2{display:none;opacity:0.4;fill:#10263E;enable-background:new    ;}
	.st3{opacity:0.4;fill:#F37137;enable-background:new    ;}
</style>
<title>backup-warning</title>
<desc>Created with Sketch.</desc>
<g id="Page-1">
	<g id="backup-warning">
		<g id="Onboarding">
			<g id="_x30_.5.a.1-_x2013_-Backup-Warning">
				<g id="being-watched">
					<path id="Oval-2" class="st0" d="M123.5,247c68.2,0,123.5-55.3,123.5-123.5S191.7,0,123.5,0S0,55.3,0,123.5S55.3,247,123.5,247
						z"/>
					
						<linearGradient id="Shape_1_" gradientUnits="userSpaceOnUse" x1="-180.3258" y1="516.5999" x2="-180.3258" y2="515.5999" gradientTransform="matrix(155 0 0 -79.9977 28074 41371.8281)">
						<stop  offset="0" style="stop-color:#4B6C91"/>
						<stop  offset="1" style="stop-color:#10263E"/>
					</linearGradient>
					<path id="Shape" class="st1" d="M157.7,46.9c-0.3-1.1-1.5-1.9-2.7-1.9l-40.9,8.1l-22.3-7.9c-1.2,0-2.4,0.9-2.7,2L74.4,96.6
						h98.2L157.7,46.9L157.7,46.9z M123.5,107.9c-29.3,0-56.3,6.4-77.5,17.1h155C179.8,114.3,152.8,107.9,123.5,107.9L123.5,107.9z"
						/>
					<path id="Combined-Shape" class="st2" d="M155,132.1c-11.9,0-21.8,8.8-23.5,20.3c-5.3-1.2-10.8-1.2-16.1,0
						c-1.8-11.3-11.6-20-23.5-20c-13.1,0-23.8,10.7-23.8,23.8c0,13.1,10.7,23.8,23.8,23.8c12,0,21.9-8.9,23.5-20.4
						c5.3-1.4,10.8-1.4,16,0.1c1.8,11.4,11.6,20.1,23.5,20.1c13.1,0,23.8-10.7,23.8-23.8C178.8,142.8,168.1,132.1,155,132.1z
						 M92,173.6c-9.6,0-17.4-7.8-17.4-17.4s7.8-17.4,17.4-17.4s17.4,7.8,17.4,17.4S101.6,173.6,92,173.6z M155,173.3
						c-9.6,0-17.4-7.8-17.4-17.4c0-9.6,7.8-17.4,17.4-17.4s17.4,7.8,17.4,17.4C172.4,165.5,164.6,173.3,155,173.3z"/>
					<path id="Combined-Shape_1_" class="st3" d="M155,132.1c-11.9,0-21.8,8.8-23.5,20.3c-5.3-1.2-10.8-1.2-16.1,0
						c-1.8-11.3-11.6-20-23.5-20c-13.1,0-23.8,10.7-23.8,23.8c0,13.1,10.7,23.8,23.8,23.8c12,0,21.9-8.9,23.5-20.4
						c5.3-1.4,10.8-1.4,16,0.1c1.8,11.4,11.6,20.1,23.5,20.1c13.1,0,23.8-10.7,23.8-23.8C178.8,142.8,168.1,132.1,155,132.1z
						 M92,173.6c-9.6,0-17.4-7.8-17.4-17.4s7.8-17.4,17.4-17.4s17.4,7.8,17.4,17.4S101.6,173.6,92,173.6z M155,173.3
						c-9.6,0-17.4-7.8-17.4-17.4c0-9.6,7.8-17.4,17.4-17.4s17.4,7.8,17.4,17.4C172.4,165.5,164.6,173.3,155,173.3z"/>
				</g>
			</g>
		</g>
	</g>
</g>
</svg>
