<?xml version="1.0" encoding="utf-8"?>
<!-- Generator: Adobe Illustrator 22.1.0, SVG Export Plug-In . SVG Version: 6.00 Build 0)  -->
<svg version="1.1" id="Layer_1" xmlns="http://www.w3.org/2000/svg" xmlns:xlink="http://www.w3.org/1999/xlink" x="0px" y="0px"
	 viewBox="0 0 247 248" style="enable-background:new 0 0 247 248;" xml:space="preserve">
<style type="text/css">
	.st0{opacity:0.5;fill:#DEE2E6;enable-background:new    ;}
	.st1{fill:#495057;}
	.st2{fill:#FFFFFF;}
	.st3{fill:none;stroke:#FFFFFF;stroke-width:2;stroke-linecap:square;}
	.st4{display:none;}
	.st5{display:inline;}
	.st6{display:inline;clip-path:url(#SVGID_16_);fill:#FFFFFF;}
	.st7{fill:#F89B4F;}
	.st8{fill:#F79420;}
	.st9{fill:#10263E;}
</style>
<g>
	<path class="st0" d="M60.7,18.2c-36.5,21.4-61,61.1-61,106.5c0,68.2,55.3,123.5,123.5,123.5s123.5-55.3,123.5-123.5
		c0-33.4-13.3-63.8-34.9-86c3.1,6,4.9,12.8,4.9,20c0,12.6-5.4,24-14.1,32.2c-5,4.7-11,8.4-17.8,10.7v112.1c0,5-4,9-9,9H69.7
		c-5,0-9-4-9-9L60.7,18.2"/>
	<path class="st1" d="M69.7,1.2h106.2c4.4,0,8,3.6,8,8v204.5c0,4.4-3.6,8-8,8H69.7c-4.4,0-8-3.6-8-8V9.2C61.7,4.8,65.3,1.2,69.7,1.2
		"/>
	<path class="st2" d="M69.7,1.2v1h106.2c1.9,0,3.7,0.8,5,2.1s2,3,2,4.9v204.5c0,1.9-0.8,3.7-2.1,4.9c-1.3,1.3-3,2-4.9,2.1H69.7
		c-1.9,0-3.7-0.8-4.9-2.1c-1.3-1.3-2-3-2.1-4.9V9.2c0-1.9,0.8-3.7,2.1-4.9c1.3-1.3,3-2,4.9-2.1V1.2v-1c-5,0-9,4-9,9v204.5
		c0,5,4,9,9,9h106.2c5,0,9-4,9-9V9.2c0-5-4-9-9-9H69.7V1.2"/>
	<line class="st3" x1="62.3" y1="188.2" x2="183.2" y2="188.2"/>
	<line class="st3" x1="112" y1="204.2" x2="134.9" y2="204.2"/>
	<g id="SmallPhoneInnerLines">
		<g id="insideHDarkGrayLongerLine" class="st4">
			<g class="st5">
				<g>
					<defs>
						<polyline id="SVGID_1_" points="60.7,33.2 184.7,33.2 184.7,69.2 60.7,69.2 60.7,33.2 						"/>
					</defs>
					<clipPath id="SVGID_2_">
						<use xlink:href="#SVGID_1_"  style="overflow:visible;"/>
					</clipPath>
				</g>
			</g>
		</g>
		<g id="insideHDarkGrayShorterLine" class="st4">
			<g class="st5">
				<g>
					<defs>
						<polyline id="SVGID_3_" points="60.7,33.2 184.7,33.2 184.7,69.2 60.7,69.2 60.7,33.2 						"/>
					</defs>
					<clipPath id="SVGID_4_">
						<use xlink:href="#SVGID_3_"  style="overflow:visible;"/>
					</clipPath>
				</g>
			</g>
		</g>
		<g id="leftHalfPartLines" class="st4">
			<g class="st5">
				<g>
					<defs>
						<polyline id="SVGID_5_" points="60.7,33.2 184.7,33.2 184.7,69.2 60.7,69.2 60.7,33.2 						"/>
					</defs>
					<clipPath id="SVGID_6_">
						<use xlink:href="#SVGID_5_"  style="overflow:visible;"/>
					</clipPath>
				</g>
			</g>
		</g>
		<g id="whiteLeftVLine" class="st4">
			<g class="st5">
				<g>
					<defs>
						<polyline id="SVGID_7_" points="60.7,33.2 184.7,33.2 184.7,69.2 60.7,69.2 60.7,33.2 						"/>
					</defs>
					<clipPath id="SVGID_8_">
						<use xlink:href="#SVGID_7_"  style="overflow:visible;"/>
					</clipPath>
				</g>
			</g>
		</g>
		<g id="rightHalfPartLines" class="st4">
			<g>
				<g class="st5">
					<defs>
						<polyline id="SVGID_9_" points="60.7,33.2 184.7,33.2 184.7,69.2 60.7,69.2 60.7,33.2 						"/>
					</defs>
					<clipPath id="SVGID_10_">
						<use xlink:href="#SVGID_9_"  style="display:none;overflow:visible;"/>
					</clipPath>
				</g>
			</g>
		</g>
		<g id="rightVLine" class="st4">
			<g class="st5">
				<g>
					<defs>
						<polyline id="SVGID_11_" points="60.7,33.2 184.7,33.2 184.7,69.2 60.7,69.2 60.7,33.2 						"/>
					</defs>
					<clipPath id="SVGID_12_">
						<use xlink:href="#SVGID_11_"  style="overflow:visible;"/>
					</clipPath>
				</g>
			</g>
		</g>
		<g id="whiteTopLeftHLine" class="st4">
			<g class="st5">
				<g>
					<defs>
						<polyline id="SVGID_13_" points="60.7,33.2 184.7,33.2 184.7,69.2 60.7,69.2 60.7,33.2 						"/>
					</defs>
					<clipPath id="SVGID_14_">
						<use xlink:href="#SVGID_13_"  style="overflow:visible;"/>
					</clipPath>
				</g>
			</g>
		</g>
		<g id="tinyWHiteCornerLeftTop_1_" class="st4">
			<g id="tinyWHiteCornerLeftTop">
				<defs>
					<polyline id="SVGID_15_" points="60.7,33.2 184.7,33.2 184.7,69.2 60.7,69.2 60.7,33.2 					"/>
				</defs>
				<clipPath id="SVGID_16_" class="st5">
					<use xlink:href="#SVGID_15_"  style="overflow:visible;"/>
				</clipPath>
				<polyline class="st6" points="62.7,33.2 60.7,33.2 60.7,34.2 62.7,34.2 62.7,33.2 				"/>
			</g>
		</g>
		<g id="tinyOrangeLeftPiecesForCircle" class="st4">
			<g class="st5">
				<g>
					<defs>
						<polyline id="SVGID_17_" points="60.7,33.2 184.7,33.2 184.7,69.2 60.7,69.2 60.7,33.2 						"/>
					</defs>
					<clipPath id="SVGID_18_">
						<use xlink:href="#SVGID_17_"  style="overflow:visible;"/>
					</clipPath>
				</g>
			</g>
		</g>
		<path id="tinyOrangeLeftPiecesForCircle_1_" class="st7" d="M123.6,67.2h-2c0.1,0.7,0.3,1.3,0.4,2h2.1
			C123.9,68.6,123.7,67.9,123.6,67.2 M131.4,33.2h-2.5c-0.5,0.7-0.9,1.3-1.4,2h2.4C130.4,34.5,130.9,34,131.4,33.2"/>
		<g id="InsideWhiteLInes">
			<polyline id="whiteLeftVLine_1_" class="st2" points="62.7,34.2 60.7,34.2 61.7,34.2 60.7,34.2 60.7,69.2 62.7,69.2 62.7,34.2 
							"/>
			<polyline id="insideHDarkGrayLongerLine_1_" class="st2" points="113.7,55.3 72.9,55.3 72.9,57.2 113.7,57.2 113.7,55.3 			"/>
			<polyline id="whiteTopLeftHLine_1_" class="st2" points="121.7,33.2 62.7,33.2 62.7,35.2 121.7,35.2 121.7,33.2 			"/>
			<polyline id="insideHDarkGrayShorterLine_1_" class="st2" points="106.2,46.2 82.2,46.2 82.2,48.3 106.2,48.3 106.2,46.2 			"/>
			<path id="leftHalfPartLines_1_" class="st2" d="M128.9,33.2h-7.2v1h-59v35H122c-0.2-0.7-0.3-1.3-0.4-2H62.7v-32h64.9
				C128,34.5,128.5,34,128.9,33.2"/>
			<path id="rightVLine_1_" class="st2" d="M182.9,51.2v18h0.1v-1.5v-15C182.9,52.2,182.9,51.8,182.9,51.2 M184.7,33.2h-1.8V41
				c0.7,0.8,1.3,1.6,1.8,2.4V33.2"/>
			<path id="rightHalfPartLines_1_" class="st2" d="M150.1,67.2h-26.5c0.1,0.7,0.3,1.3,0.5,2h24.5l1.6-1.5v-0.5 M182.7,50.2v17.1
				h-28.2v0.5v1.5h28.4v-18C182.8,50.8,182.8,50.5,182.7,50.2 M164.4,33.2h-33c-0.5,0.7-1,1.3-1.4,2h34.4V33.2
				C164.4,33.3,164.4,33.2,164.4,33.2 M182.9,33.2h-9.8v0.1v1.9h9.7v5.6c0.1,0.1,0.1,0.1,0.2,0.2L182.9,33.2"/>
		</g>
	</g>
	<ellipse class="st1" cx="169" cy="58.7" rx="46.6" ry="43.6"/>
	<g>
		<path class="st8" d="M168.7,84.3c3.2-0.1,5.8-2.5,5.8-5.5H163C163,81.8,165.6,84.3,168.7,84.3z"/>
	</g>
</g>
<path class="st8" d="M210.1,35.1l-1.4-2c-1.7-2.4-3.6-4.7-5.8-6.7c-8.7-8.2-20.7-13.3-33.9-13.3c-1.6,0-3.3,0.1-4.9,0.2
	c-0.1,0-0.2,0-0.3,0c-0.7,0.1-1.5,0.2-2.2,0.3c-0.2,0-0.3,0-0.5,0.1c-0.6,0.1-1.1,0.2-1.7,0.3c-0.2,0-0.5,0.1-0.7,0.1
	c-0.5,0.1-1.1,0.2-1.6,0.4c-0.2,0-0.3,0.1-0.5,0.1c-0.7,0.2-1.3,0.3-2,0.5l0,0c-7.6,2.2-14.4,6.1-19.9,11.3c-2.2,2-4.1,4.3-5.8,6.7
	l-1.4,2c-4.4,6.9-6.9,14.9-6.9,23.5c0,2.9,0.3,5.8,0.8,8.5l0.5,2c2.1,8.4,6.6,15.8,12.8,21.7c8.7,8.2,20.7,13.3,33.9,13.3
	c1.6,0,3.3-0.1,4.9-0.2c0.1,0,0.2,0,0.3,0c0.7-0.1,1.5-0.2,2.2-0.3c0.2,0,0.3,0,0.5-0.1c0.6-0.1,1.1-0.2,1.7-0.3
	c0.2,0,0.5-0.1,0.7-0.1c0.5-0.1,1.1-0.2,1.6-0.4c0.2,0,0.3-0.1,0.5-0.1c0.7-0.2,1.3-0.3,2-0.5l0,0c7.6-2.2,14.4-6.1,19.9-11.3
	c6.2-5.9,10.7-13.3,12.8-21.7l0.5-2c0.5-2.7,0.8-5.6,0.8-8.5C217,50,214.5,42,210.1,35.1z M214.2,67.1l-0.6,2
	c-2,7.9-6.2,14.7-12.1,20.2c-5.1,4.9-11.4,8.6-18.5,10.7l0,0c-0.3,0.1-0.7,0.2-1,0.3c-0.4,0.1-0.9,0.2-1.3,0.4
	c-0.1,0-0.2,0.1-0.4,0.1c-3.6,0.9-7.4,1.3-11.3,1.3c-5,0-9.7-0.7-14.2-2.1l0,0c-7.1-2.1-13.4-5.9-18.5-10.7
	c-5.9-5.5-10.1-12.3-12.1-20.2l-0.6-2c-0.6-2.8-0.9-5.6-0.9-8.5c0.1-8.7,2.8-16.7,7.4-23.5l1.5-2c1.4-1.9,3-3.6,4.7-5.2
	c5.1-4.9,11.4-8.6,18.5-10.7l0,0c0.3-0.1,0.7-0.2,1-0.3c0.4-0.1,0.8-0.2,1.2-0.3c0.2,0,0.4-0.1,0.5-0.1c0.7-0.2,1.3-0.3,2-0.4l0,0
	c3-0.6,6.1-0.9,9.3-0.9c4.9,0,9.7,0.7,14.2,2.1l0,0c7.1,2.1,13.4,5.9,18.5,10.7c1.7,1.6,3.3,3.3,4.7,5.2l1.5,2
	c4.6,6.8,7.3,14.8,7.4,23.5C215.1,61.5,214.8,64.3,214.2,67.1z"/>
<path class="st8" d="M188.9,69.2l-1.6-1.5v-0.5V52.5c0-8.4-6.1-15.5-14.3-17.3v-1.9v-0.1c0-0.2,0-0.5-0.1-0.7v-0.1
	c0-0.1,0-0.1-0.1-0.2c-0.1-0.2-0.1-0.4-0.2-0.5c-0.7-1.5-2.1-2.4-3.9-2.4l0,0l0,0c-1.8,0-3.3,1-3.9,2.4c-0.1,0.2-0.1,0.4-0.2,0.5
	c0,0.1-0.1,0.1-0.1,0.2v0.1c0,0.2-0.1,0.5-0.1,0.7v0.1v1.9c-8.2,1.8-14.3,8.9-14.3,17.3v14.7l0,0v0.5l-1.6,1.5l-4.2,4V76h10.3h28.2
	h10.3v-2.8L188.9,69.2z M182.8,71.8h-28.2h-2.5l1.1-1l1.3-1.2v-0.4v-1.5v-0.5V52.7c0-6.1,5-11.8,10.8-13.3c4.5-1.2,9.5,0.1,13.1,3.2
	c2.9,2.5,4.6,6.2,4.6,10.1v14.5v0.5v1.5v0.4l1.3,1.2l1.1,1H182.8z"/>
<path class="st9" d="M154.5,69.6"/>
</svg>
