<?xml version="1.0" encoding="utf-8"?>
<!-- Generator: Adobe Illustrator 22.1.0, SVG Export Plug-In . SVG Version: 6.00 Build 0)  -->
<svg version="1.1" id="Layer_1" xmlns="http://www.w3.org/2000/svg" xmlns:xlink="http://www.w3.org/1999/xlink" x="0px" y="0px"
	 viewBox="0 0 247 248" style="enable-background:new 0 0 247 248;" xml:space="preserve">
<style type="text/css">
	.st0{fill:#B7BDC5;}
	.st1{fill:#0F263E;}
	.st2{fill:#FFFFFF;}
	.st3{fill:none;stroke:#FFFFFF;stroke-width:2;stroke-linecap:square;}
	.st4{fill:#A0A9B3;}
	.st5{fill:#74818F;}
	.st6{fill:#F2F3F4;}
	.st7{fill:#FBFCFC;}
	.st8{clip-path:url(#SVGID_2_);fill:#0F263E;}
	.st9{clip-path:url(#SVGID_2_);fill:#FFFFFF;}
	.st10{clip-path:url(#SVGID_2_);fill:#A0A9B3;}
	.st11{clip-path:url(#SVGID_2_);fill:#F2F3F4;}
	.st12{fill:#F1F2F3;}
	.st13{fill:#E7EAEC;}
	.st14{fill:#F6F7F8;}
</style>
<g>
	<path class="st0" d="M61,18C24.5,39.4,0,79.1,0,124.5C0,192.7,55.3,248,123.5,248c68.2,0,123.5-55.3,123.5-123.5
		c0-33.4-13.3-63.8-34.9-86c3.1,6,4.9,12.8,4.9,20c0,12.6-5.4,24-14.1,32.2c-5,4.7-11,8.4-17.8,10.7v112.1c0,5-4,9-9,9H70
		c-5,0-9-4-9-9V18"/>
	<path class="st1" d="M70,1h106.2c4.4,0,8,3.6,8,8v204.5c0,4.4-3.6,8-8,8H70c-4.4,0-8-3.6-8-8V9C62,4.6,65.6,1,70,1"/>
	<path class="st2" d="M70,1v1h106.2c1.9,0,3.7,0.8,5,2.1c1.3,1.3,2,3,2,4.9v204.5c0,1.9-0.8,3.7-2.1,4.9c-1.3,1.3-3,2-4.9,2.1H70
		c-1.9,0-3.7-0.8-4.9-2.1c-1.3-1.3-2-3-2.1-4.9V9c0-1.9,0.8-3.7,2.1-4.9c1.3-1.3,3-2,4.9-2.1V1V0c-5,0-9,4-9,9v204.5c0,5,4,9,9,9
		h106.2c5,0,9-4,9-9V9c0-5-4-9-9-9H70V1"/>
	<line class="st3" x1="62.6" y1="188" x2="183.5" y2="188"/>
	<line class="st3" x1="112.3" y1="204" x2="135.2" y2="204"/>
	<path class="st4" d="M186.5,18.3c6.9,4.1,13.4,8.9,19.4,14.2c-1.3-1.7-2.8-3.2-4.3-4.7C197.3,23.7,192.2,20.5,186.5,18.3"/>
	<path class="st5" d="M185.2,71.1v0.4h0.4L185.2,71.1 M185.2,17.8v25.7c1.6,2.6,2.5,5.7,2.5,8.9v15.1l5.7,5.5v2.8h-8.2v23.5
		c6.2-2.2,11.8-5.6,16.4-10c8.3-7.9,13.5-18.7,13.5-30.7c0-9.8-3.4-18.8-9.1-26c-6-5.3-12.4-10.1-19.4-14.2
		C186.1,18.1,185.6,17.9,185.2,17.8"/>
	<path class="st1" d="M174.8,78.5L174.8,78.5c0,3-2.6,5.5-5.7,5.5c-3.2,0-5.7-2.5-5.7-5.5H174.8 M148.8,69h-24.5
		c2,7.8,6.3,14.7,12.1,20.2c8.3,7.9,19.8,12.8,32.5,12.8c4.9,0,9.7-0.7,14.2-2.1V75.8h-38.5V73L148.8,69 M183.2,69h-28.4v0.2
		l-1.3,1.2l-1.1,1h30.7V69 M169.2,38.6h-0.3c-0.8,0-3.3,0.6-3.3,0.6c-6.3,1.4-10.8,6.9-10.8,13.2V67H183V49.9
		c-1-5.2-5.1-9.5-10.5-10.7C172.5,39.2,170.1,38.6,169.2,38.6 M164.7,35h-34.4c-4.6,6.8-7.3,14.8-7.3,23.5c0,2.9,0.3,5.8,0.9,8.5
		h26.5V52.4C150.4,44,156.5,36.8,164.7,35L164.7,35 M183,35h-9.7v0c3.8,0.8,7.2,2.8,9.7,5.5V35 M169,15c-12.7,0-24.2,4.9-32.5,12.8
		c-1.7,1.6-3.3,3.4-4.7,5.2h33c0.1-2.3,1.9-4,4.3-4c2.4,0,4.2,1.7,4.3,4h9.8V17.1C178.7,15.7,173.9,15,169,15L169,15"/>
	<path class="st4" d="M185.2,75.8h-2v24.1c0.7-0.2,1.3-0.4,2-0.7V75.8 M183.2,69L183.2,69l-0.1,2.5h2v-0.4l-0.6-0.6l-1.3-1.2V69
		 M183.2,17.1V33h1.8l0,10.2c0.1,0.1,0.1,0.2,0.2,0.3V17.8C184.5,17.5,183.8,17.3,183.2,17.1"/>
	<path class="st2" d="M185.2,15.6v1.8c0.5,0.3,0.9,0.5,1.3,0.8c5.7,2.2,10.8,5.5,15,9.5c1.6,1.5,3,3.1,4.3,4.7
		c2.2,1.9,4.2,3.9,6.3,6c-2.3-4.5-5.5-8.7-9.2-12.2C198,21.6,191.9,17.9,185.2,15.6"/>
	<path class="st6" d="M124.4,69h-2.1c2.1,8.4,6.6,15.8,12.8,21.7c8.7,8.2,20.7,13.3,33.9,13.3c4.9,0,9.7-0.7,14.2-2v-2.1
		c-4.5,1.4-9.2,2.1-14.2,2.1c-12.7,0-24.2-4.9-32.5-12.8C130.6,83.7,126.4,76.8,124.4,69 M130.3,35h-2.4c-4.4,6.9-6.9,14.9-6.9,23.5
		c0,2.9,0.3,5.8,0.8,8.5h2c-0.6-2.8-0.9-5.6-0.9-8.5C123,49.8,125.7,41.8,130.3,35 M169,13C169,13,169,13,169,13L169,13
		c-13.2,0-25.2,5.1-33.9,13.3c-2.2,2-4.1,4.3-5.8,6.7h2.5c1.4-1.9,3-3.6,4.7-5.2C144.8,19.9,156.3,15,169,15l0,0
		c4.9,0,9.7,0.7,14.2,2.1V15C178.7,13.7,173.9,13,169,13"/>
	<path class="st2" d="M183.2,15v2.1c0.7,0.2,1.3,0.4,2,0.7v-0.3v-1.8C184.5,15.4,183.8,15.2,183.2,15"/>
	<path class="st7" d="M205.9,32.5c5.7,7.3,9.1,16.3,9.1,26c0,12-5.1,22.9-13.5,30.7c-4.6,4.4-10.2,7.8-16.4,10v2.1
		c6.7-2.3,12.8-6,17.8-10.7c8.7-8.2,14.1-19.6,14.1-32.2c0-7.2-1.8-14-4.9-20C210.1,36.4,208,34.4,205.9,32.5 M185.2,17.5v0.3
		c0.5,0.2,0.9,0.3,1.3,0.5C186.1,18,185.6,17.7,185.2,17.5"/>
	<path class="st2" d="M185.2,99.2c-0.7,0.2-1.3,0.5-2,0.7v2.1c0.7-0.2,1.3-0.4,2-0.6V99.2"/>
	<g>
		<defs>
			<polyline id="SVGID_1_" points="61,33 185,33 185,69 61,69 61,33 			"/>
		</defs>
		<clipPath id="SVGID_2_">
			<use xlink:href="#SVGID_1_"  style="overflow:visible;"/>
		</clipPath>
		<polyline class="st8" points="114,52 73.2,52 73.2,55 114,55 114,52 		"/>
		<polyline class="st8" points="106.5,42.9 82.5,42.9 82.5,45.9 106.5,45.9 106.5,42.9 		"/>
		<path class="st8" d="M129.2,33H122v1H63v35h59.3c-0.2-0.7-0.3-1.3-0.4-2H63V35h64.9C128.3,34.3,128.8,33.7,129.2,33"/>
		<polyline class="st9" points="63,34 61,34 62,34 61,34 61,69 63,69 63,34 		"/>
		<path class="st8" d="M150.4,67h-26.5c0.1,0.7,0.3,1.3,0.5,2h24.5l1.6-1.5V67 M183,49.9V67h-28.2v0.5V69h28.4V51
			C183.1,50.6,183.1,50.3,183,49.9 M164.7,33h-33c-0.5,0.7-1,1.3-1.4,2h34.4v-1.9C164.7,33.1,164.7,33,164.7,33 M183.2,33h-9.8
			c0,0,0,0.1,0,0.1V35h9.7v5.6c0.1,0.1,0.1,0.1,0.2,0.2V33"/>
		<path class="st10" d="M183.2,51v18h0.1v-1.5V52.4C183.2,51.9,183.2,51.5,183.2,51 M185,33h-1.8v7.8c0.7,0.8,1.3,1.6,1.8,2.4
			L185,33"/>
		<path class="st11" d="M123.9,67h-2c0.1,0.7,0.3,1.3,0.4,2h2.1C124.2,68.3,124,67.7,123.9,67 M131.7,33h-2.5
			c-0.5,0.7-0.9,1.3-1.4,2h2.4C130.7,34.3,131.2,33.7,131.7,33"/>
		<polyline class="st9" points="122,33 63,33 63,34 122,34 122,33 		"/>
		<polyline class="st9" points="63,33 61,33 61,34 63,34 63,33 		"/>
	</g>
	<path class="st12" d="M185.2,43.5v27.6l0.4,0.4h-0.4v4.2h8.2V73l-5.7-5.5V52.4C187.7,49.1,186.8,46.1,185.2,43.5"/>
	<path class="st13" d="M174.8,78.5h-11.5c0,3,2.6,5.5,5.7,5.5C172.2,84,174.8,81.5,174.8,78.5 M154.8,69h-6l-4.2,4v2.8h38.5v-4.2
		h-30.7l1.1-1l1.3-1.2V69 M173.3,35h-8.6v0c-8.2,1.8-14.3,8.9-14.3,17.3V67h4.4V52.4c0-6.3,4.4-11.8,10.8-13.2c0,0,2.5-0.6,3.3-0.6
		h0.3c1,0,3.3,0.6,3.3,0.6c5.5,1.2,9.5,5.5,10.5,10.7v-9.3C180.5,37.9,177.1,35.9,173.3,35L173.3,35 M169,29c-2.4,0-4.2,1.7-4.3,4
		h8.6C173.3,30.7,171.4,29,169,29"/>
	<path class="st14" d="M185.2,71.5h-2v4.2h2V71.5 M185,43.2V69h-1.8v0.2l1.3,1.2l0.6,0.6V43.5C185.1,43.4,185.1,43.3,185,43.2"/>
	<path class="st13" d="M154.8,67h-4.4v0.5l-1.6,1.5h6v-1.5V67 M183,40.6v9.3c0.1,0.4,0.1,0.8,0.2,1.1V40.8
		C183.1,40.7,183.1,40.7,183,40.6 M173.3,33h-8.6c0,0,0,0.1,0,0.1V35h8.6v-1.9C173.3,33.1,173.3,33,173.3,33"/>
	<path class="st14" d="M183.2,40.8V51c0,0.4,0.1,0.9,0.1,1.4v15.1V69h1.8l0-25.8C184.5,42.3,183.8,41.5,183.2,40.8"/>
</g>
</svg>
