<?xml version="1.0" encoding="utf-8"?>
<!-- Generator: Adobe Illustrator 22.1.0, SVG Export Plug-In . SVG Version: 6.00 Build 0)  -->
<svg version="1.1" id="Layer_1" xmlns="http://www.w3.org/2000/svg" xmlns:xlink="http://www.w3.org/1999/xlink" x="0px" y="0px"
	 viewBox="0 0 247 247" style="enable-background:new 0 0 247 247;" xml:space="preserve">
<style type="text/css">
	.st0{opacity:0.5;fill:#DEE2E6;enable-background:new    ;}
	.st1{fill:#495057;}
	.st2{fill:none;stroke:#FFFFFF;stroke-width:2;}
	.st3{fill:none;stroke:#FFFFFF;stroke-width:2;stroke-linecap:square;}
	.st4{fill:none;stroke:#F79420;}
	.st5{fill:#495057;stroke:#F79420;stroke-miterlimit:10;}
	.st6{fill:none;stroke:#F89B4F;stroke-width:2;}
	.st7{fill:none;stroke:#F79420;stroke-width:2;}
	.st8{fill:none;}
</style>
<title>bg-3</title>
<desc>Created with Sketch.</desc>
<g>
	<path class="st0" d="M123.5,0C55.3,0,0,55.3,0,123.5S55.3,247,123.5,247S247,191.7,247,123.5S191.7,0,123.5,0"/>
	<path class="st1" d="M71,24h83.8c4.4,0,8,3.6,8,8v167.9c0,4.4-3.6,8-8,8H71c-4.4,0-8-3.6-8-8V32C63,27.6,66.6,24,71,24z"/>
	<path class="st2" d="M71,24h83.8c4.4,0,8,3.6,8,8v167.9c0,4.4-3.6,8-8,8H71c-4.4,0-8-3.6-8-8V32C63,27.6,66.6,24,71,24z"/>
	<line class="st3" x1="63.5" y1="180.6" x2="162.3" y2="180.6"/>
	<line class="st3" x1="104.1" y1="194.3" x2="122.8" y2="194.3"/>
	<line class="st4" x1="111.7" y1="79.8" x2="111.7" y2="87.3"/>
	<line class="st4" x1="116.6" y1="79.8" x2="116.6" y2="87.3"/>
	<line class="st4" x1="111.7" y1="127.5" x2="111.7" y2="135"/>
	<line class="st4" x1="116.6" y1="127.5" x2="116.6" y2="135"/>
	<line class="st4" x1="99.3" y1="127.5" x2="106.7" y2="127.5"/>
	<line class="st4" x1="99.3" y1="87.3" x2="106.7" y2="87.3"/>
	<path class="st4" d="M106.7,104.9V87.3h14.4c5.1,0,9.1,3.9,9.1,8.8s-4.1,8.8-9.1,8.8"/>
	<path class="st4" d="M106.7,127.5v-22.6H123c5.4,0,9.7,5,9.7,11.3s-4.3,11.3-9.7,11.3C123,127.5,106.7,127.5,106.7,127.5z"/>
	<path class="st5" d="M129,159.6h66.8c2.2,0,4,1.8,4,4v57.7c0,2.2-1.8,4-4,4H129c-2.2,0-4-1.8-4-4v-57.7
		C125,161.4,126.8,159.6,129,159.6z"/>
	<path class="st6" d="M129,159.6h66.8c2.2,0,4,1.8,4,4v57.7c0,2.2-1.8,4-4,4H129c-2.2,0-4-1.8-4-4v-57.7
		C125,161.4,126.8,159.6,129,159.6z"/>
	<path class="st7" d="M143.7,159.6v-18.8c0-10.3,8.4-18.8,18.7-18.8s18.7,8.4,18.7,18.8v18.8"/>
	<line class="st8" x1="161.6" y1="187.8" x2="161.6" y2="197.2"/>
	<line class="st7" x1="161.6" y1="187.8" x2="161.6" y2="197.2"/>
</g>
</svg>
