<?xml version="1.0" encoding="utf-8"?>
<!-- Generator: Adobe Illustrator 22.1.0, SVG Export Plug-In . SVG Version: 6.00 Build 0)  -->
<svg version="1.1" id="Layer_1" xmlns="http://www.w3.org/2000/svg" xmlns:xlink="http://www.w3.org/1999/xlink" x="0px" y="0px"
	 viewBox="0 0 49 34.2" style="enable-background:new 0 0 49 34.2;" xml:space="preserve">
<style type="text/css">
	.st0{fill:#09C286;}
	.st1{fill:#FFFFFF;}
	.st2{display:none;fill:#09C286;}
</style>
<title>Group 4</title>
<desc>Created with Sketch.</desc>
<g id="Home_x2F_Overview">
	<g id="Group-4" transform="translate(0.000000, -6.000000)">
		<g>
			<path class="st0" d="M18.7,6H0v34.2h18.3c-5.8-2-10.4-6.8-11.8-13.2C4.7,17.9,10,8.9,18.7,6z"/>
			<path class="st0" d="M30.7,6c5.8,2,10.4,6.8,11.7,13.2c1.9,9.1-3.5,18.1-12.2,21H49V6H30.7z"/>
		</g>
		
			<g id="element-icon-bitcoin" transform="translate(24.500000, 22.000000) rotate(-26.000000) translate(-24.500000, -22.000000) translate(8.000000, 6.000000)">
			<g id="bitcoin" transform="translate(0.000000, -0.000000)">
				<path id="Shape" class="st0" d="M31.8,20.8c-2.2,8.6-11,13.8-19.7,11.7c-8.7-2.1-14-10.8-11.8-19.4C2.4,4.5,11.3-0.7,20,1.4
					C28.7,3.5,34,12.2,31.8,20.8"/>
				<path id="Shape_1_" class="st1" d="M20.5,14.6c-0.5,2-3.7,1-4.7,0.8l0.9-3.6C17.7,12.1,21,12.5,20.5,14.6L20.5,14.6z M20,20.4
					c-0.5,2.2-4.4,1.1-5.6,0.8l0.9-4C16.6,17.5,20.5,18.1,20,20.4z M24.1,14.6c0.3-2.2-1.4-3.3-3.7-4.1l0.7-3l-1.8-0.4L18.6,10
					c-0.5-0.1-1-0.2-1.5-0.3l0.7-2.9L16,6.4l-0.7,3c-0.4-0.1-0.8-0.2-1.2-0.3l-2.5-0.6l-0.5,1.9c0,0,1.4,0.3,1.3,0.3
					c0.7,0.2,0.9,0.7,0.9,1l-0.8,3.4c0,0,0.1,0,0.2,0.1c-0.1,0-0.1,0-0.2,0l-1.1,4.7c-0.1,0.2-0.3,0.5-0.8,0.4c0,0-1.3-0.3-1.3-0.3
					L8.3,22l2.4,0.5c0.4,0.1,0.9,0.2,1.3,0.3l-0.7,3l1.8,0.4l0.7-3c0.5,0.1,1,0.2,1.5,0.4l-0.7,2.9l1.8,0.4l0.7-3
					c3.1,0.5,5.4,0.3,6.4-2.5c0.8-2.2-0.1-3.5-1.7-4.3C23,17,23.9,16.2,24.1,14.6L24.1,14.6z"/>
			</g>
		</g>
		<path id="Combined-Shape" class="st2" d="M15.9,7H0v32h15.9C8.5,35.3,4.5,26.9,6.5,18.7C7.9,13.4,11.4,9.3,15.9,7z M32.7,7H49v32
			H32.7c4.5-2.3,8.1-6.4,9.4-11.7C44.1,19.1,40.1,10.7,32.7,7z"/>
	</g>
</g>
</svg>
