<svg id="FINAL" xmlns="http://www.w3.org/2000/svg" viewBox="0 0 148.7 151"><defs><style>.cls-1{fill:#f79420;}.cls-2{fill:#fff;}</style></defs><title>icon-bitcoin-bag</title><path id="BagBtm_Final" class="cls-1" d="M149.61,113.07a79.9,79.9,0,0,0-4.87-21c-1.42-3.34-3.09-6.71-4.91-10-12.14-22.17-31.28-42.84-31.28-42.84H42.45S23.31,59.86,11.17,82c-1.82,3.34-3.49,6.71-4.91,10a79.9,79.9,0,0,0-4.87,21c-.73,8.33.13,16.15,3.27,21.33,4.12,6.8,8.18,12.06,15.92,14.63,4.93,2,12.66,2,12.66,2h84.52s7.73,0,12.66-2c7.74-2.57,11.8-7.83,15.92-14.63C149.48,129.22,150.34,121.4,149.61,113.07Z" transform="translate(-1.15)"/><path id="BitcoinB_Final" class="cls-2" d="M88.3,94C95,91.9,99.8,86.79,99.8,80.82c0-7.88-8.28-14.27-18.5-14.27H79.65V54.84h-8.3V66.55H55.87v59.07H71.35v11.6h8.3v-11.6h1.87c11.46-.09,20.71-7.34,20.71-16.27C102.23,102.27,96.42,96.27,88.3,94ZM65,75.63H78.43c5.78,0,10.47,3.13,10.47,7s-4.69,7-10.47,7H65ZM78.7,115.39H65.14V99l13.57-.25c6.5.05,11.74,3.19,11.74,8S85.2,115.34,78.7,115.39Z" transform="translate(-1.15)"/><path id="BagTop_Final" class="cls-1" d="M109.48,9.64a9.62,9.62,0,0,0-3.83-1.91H88.29C86.82,3.28,81.93,0,76.12,0S65.41,3.28,63.94,7.73H46.58a9.55,9.55,0,0,0-3.82,1.91,5.62,5.62,0,0,0-1.48,3.58,29.06,29.06,0,0,0,2.09,9.68,41.78,41.78,0,0,0,4,8h57.55a41.78,41.78,0,0,0,4-8,29.07,29.07,0,0,0,2.1-9.68A5.69,5.69,0,0,0,109.48,9.64Z" transform="translate(-1.15)"/></svg>