<svg id="Layer_2" data-name="Layer 2" xmlns="http://www.w3.org/2000/svg" viewBox="0 0 31.72 25.92"><defs><style>.cls-1{fill:#f79420;}</style></defs><title>icon-bitcoin-card-in</title><path class="cls-1" d="M27.19,3H4.81A4.68,4.68,0,0,0,.14,7.71v.86a4.67,4.67,0,0,0,4.64,4.66V25.69A3.28,3.28,0,0,0,8.05,29h16.3a3.28,3.28,0,0,0,3.27-3.27V13.21a4.67,4.67,0,0,0,4.24-4.64V7.71A4.68,4.68,0,0,0,27.19,3ZM19.1,26.9H9.52a2.68,2.68,0,0,1-2.68-2.68v-16H19.1Zm6.47-13.66v11a2.68,2.68,0,0,1-2.31,2.65V8.17h2.31Z" transform="translate(-0.14 -3.04)"/><path id="BitcoinB_Final" class="cls-1" d="M13.43,19.11a2,2,0,0,0,1.78,1.54,2.25,2.25,0,0,0,1.9-2.49v-.22h1.57V16.83H17.11V14.75H13.28l-4.1,0v2.07H7.63V18H9.19v.26h0A2.55,2.55,0,0,0,11.38,21,2.3,2.3,0,0,0,13.43,19.11ZM15.89,16v1.8c0,.78-.42,1.41-.94,1.41s-.94-.63-.94-1.4V16Zm-5.33,1.85h0V16h2.2l0,1.82c0,.87-.43,1.57-1.07,1.58S10.57,18.71,10.56,17.83Z" transform="translate(-0.14 -3.04)"/></svg>