<?xml version="1.0" encoding="utf-8"?>
<!-- Generator: Adobe Illustrator 22.1.0, SVG Export Plug-In . SVG Version: 6.00 Build 0)  -->
<svg version="1.1" id="Layer_1" xmlns="http://www.w3.org/2000/svg" xmlns:xlink="http://www.w3.org/1999/xlink" x="0px" y="0px"
	 viewBox="0 0 18 18" style="enable-background:new 0 0 18 18;" xml:space="preserve">
<style type="text/css">
	.st0{display:none;fill:#F79420;}
	.st1{fill:#495057;}
	.st2{display:none;fill:#495057;}
</style>
<circle class="st0" cx="6.9" cy="7.7" r="6.9"/>
<path class="st1" d="M7.1,0C2.5,0.4-0.2,3.4,0,7.9c0.2,4.3,3.4,7.2,7.7,7.2c0,0-0.2,0.5-1,1.5C6.1,17.3,4.9,18.1,5,18
	c1.5-0.3,4.2-1.6,5.3-2.3c2.8-1.9,5.2-4.7,5.2-8.2C15.4,3,12.1-0.4,7.1,0z M8.6,12.8H7.3c-0.1,0-0.2-0.1-0.2-0.2v-1.3
	c0-0.1,0.1-0.2,0.2-0.2h1.3c0.1,0,0.2,0.1,0.2,0.2v1.3C8.8,12.7,8.7,12.8,8.6,12.8z M8.6,10.1l-1.3,0c-0.1,0-0.2-0.1-0.2-0.2
	c0.2-3,2.7-2.7,2.7-4.4c0-1.2-0.9-1.7-2-1.7c-1.3,0-1.9,0.7-1.9,1.7c0,0.6,0.2,0.8,0.4,1.2c0,0,0.1,0.2,0,0.2C6.2,7,6,7,6,7L5,7.1
	C4.9,7.1,4.6,7,4.5,6.8C4.3,6.4,4.2,6.1,4.2,5.7C4,4.6,4.4,3.7,5,3.2c0.6-0.5,1.4-1,3-1c2.2,0,3.4,1.6,3.4,3.4
	c0,2.1-2.4,2.1-2.6,4.3C8.8,10,8.7,10.1,8.6,10.1z"/>
<path class="st2" d="M5.8,7L3.8,7.1C3.7,7.1,3.6,7,3.6,6.9l0-0.6C3.6,6.1,3.7,6,3.8,6L5.7,6c0.1,0,0.2,0.1,0.2,0.2l0,0.6
	C6,6.9,5.9,7,5.8,7z"/>
</svg>
