<?xml version="1.0" encoding="utf-8"?>
<!-- Generator: Adobe Illustrator 22.1.0, SVG Export Plug-In . SVG Version: 6.00 Build 0)  -->
<svg version="1.1" id="Send_Icon" xmlns="http://www.w3.org/2000/svg" xmlns:xlink="http://www.w3.org/1999/xlink" x="0px" y="0px"
	 viewBox="0 0 27 24" style="enable-background:new 0 0 27 24;" xml:space="preserve">
<style type="text/css">
	.st0{fill:#D3E3E6;}
	.st1{fill:#0F263E;}
	.st2{fill:#B0CED2;}
	.st3{fill:#A3C6CB;}
	.st4{fill:#6B909B;}
	.st5{fill:none;stroke:#0F263E;stroke-width:1.4;}
</style>
<g>
	<polyline class="st0" points="7,12.1 6.9,12.2 5.9,17.6 9.4,14.8 9.8,15.3 9.8,15.3 10,15.1 7,12.1 	"/>
	<polyline class="st1" points="25.2,0.9 5.7,11.2 3.9,21 10.2,15.8 9.4,14.8 5.9,17.6 6.9,12.2 25.8,2.1 25.2,0.9 	"/>
	<path class="st2" d="M25.1,2.5l-1.9,1L10,15.1l7.1,7.4L25.1,2.5 M23.1,2L1.5,6.4L6,11.1L23.1,2 M25.5,1.5L25.5,1.5L25.5,1.5
		L25.5,1.5 M25.5,1.5L25.5,1.5L25.5,1.5L25.5,1.5"/>
	<path class="st3" d="M23.2,3.5L7,12.1l2.9,3L23.2,3.5 M25.5,1.5L25.5,1.5L25.5,1.5L25.5,1.5"/>
	<polyline class="st4" points="25.5,1.5 23.1,2 6,11.1 7,12.1 23.2,3.5 25.1,2.5 25.5,1.5 25.5,1.5 25.5,1.5 	"/>
	<polygon class="st5" points="1.5,6.4 25.5,1.5 17.1,22.5 	"/>
</g>
</svg>
