<?xml version="1.0" encoding="utf-8"?>
<!-- Generator: Adobe Illustrator 23.0.0, SVG Export Plug-In . SVG Version: 6.00 Build 0)  -->
<svg version="1.1" id="Layer_1" xmlns="http://www.w3.org/2000/svg" xmlns:xlink="http://www.w3.org/1999/xlink" x="0px" y="0px"
	 viewBox="0 0 51 51" style="enable-background:new 0 0 51 51;" xml:space="preserve">
<style type="text/css">
	.st0{fill:#F79420;}
	.st1{fill:#0F263E;stroke:#FFFFFF;}
	.st2{fill:#F79420;stroke:#FFFFFF;}
</style>
<title>item-ico-backup</title>
<desc>Created with Sketch.</desc>
<g id="Symbols">
	<g id="Wallet_x2F_Icon_x2F_Backup" transform="translate(-1.000000, -1.000000)">
		<g id="item-ico-backup" transform="translate(1.000000, 1.000000)">
			<g id="Mask">
				<path id="path-1_1_" class="st0" d="M25.2,50.6c13.9,0,25.2-11.3,25.2-25.2S39.1,0.2,25.2,0.2S0,11.5,0,25.4
					S11.3,50.6,25.2,50.6z"/>
			</g>
			<g id="arrows-24px-outline-4_restore">
				<g id="Group" transform="translate(13.000000, 14.000000)">
					<g>
						<polyline id="Shape" class="st1" points="12,6.2 12,12.2 16.8,17 						"/>
						<path id="Shape_1_" class="st2" d="M0,12.2c0,6.6,5.4,12,12,12s12-5.4,12-12s-5.4-12-12-12c-4.7,0-8.8,2.6-10.7,6.6"/>
						<polyline id="Shape_2_" class="st2" points="0.3,0.9 1.3,6.8 7.2,5.8 						"/>
					</g>
				</g>
			</g>
		</g>
	</g>
</g>
</svg>
