<?xml version="1.0" encoding="utf-8"?>
<!-- Generator: Adobe Illustrator 22.1.0, SVG Export Plug-In . SVG Version: 6.00 Build 0)  -->
<svg version="1.1" id="Layer_1" xmlns="http://www.w3.org/2000/svg" xmlns:xlink="http://www.w3.org/1999/xlink" x="0px" y="0px"
	 viewBox="0 0 84 84" style="enable-background:new 0 0 84 84;" xml:space="preserve">
<style type="text/css">
	.st0{fill:#0F263E;}
	.st1{fill:#8FB9BF;}
</style>
<title>Group</title>
<desc>Created with Sketch.</desc>
<g id="Page-1">
	<g id="Artboard" transform="translate(-176.000000, -144.000000)">
		<g id="Group" transform="translate(176.000000, 144.000000)">
			<circle id="Oval" class="st0" cx="42" cy="42" r="42"/>
		</g>
	</g>
</g>
<g id="Artboard2">
	<g>
		<g>
			<g>
				<path class="st1" d="M70.1,42c0,0,0,2.9-0.1,3.8c-1.1,13.9-13.7,24.4-28,24.4c-15.6,0-28.2-12.6-28.2-28.2S26.5,13.8,42,13.8
					c11.8,0,21.9,7.2,26.1,17.5h-7.1c-3.7-6.6-10.9-11.1-19-11.1C30,20.2,20.2,29.9,20.2,42S30,63.8,42,63.8
					c10.7,0,19.7-7.7,21.5-17.9c0,0,0.4-2.6,0.4-3.7c0-0.1,0-0.2,0-0.2l-21.9,0v4.7l16.4,0c-2.4,7.7-8.9,12.5-16.5,12.5
					c-9.5,0-17.1-7.7-17.1-17.1S32.6,24.9,42,24.9c7.2,0,13.3,4.4,15.9,10.7v0.1h11.6c0,0,0,0,0,0h4.8C71.4,20.5,58.1,9,42,9
					c-18.2,0-33,14.8-33,33s14.8,33,33,33c16.9,0,31.5-12.7,32.7-29.1c0.1-1,0.1-3.8,0.1-3.8H70.1z"/>
			</g>
		</g>
	</g>
</g>
</svg>
