<?xml version="1.0" encoding="utf-8"?>
<!-- Generator: Adobe Illustrator 22.1.0, SVG Export Plug-In . SVG Version: 6.00 Build 0)  -->
<svg version="1.1" id="Layer_1" xmlns="http://www.w3.org/2000/svg" xmlns:xlink="http://www.w3.org/1999/xlink" x="0px" y="0px"
	 viewBox="0 0 242.2 55.7" style="enable-background:new 0 0 242.2 55.7;" xml:space="preserve">
<style type="text/css">
	.st0{fill:#90BAC0;}
	.st1{fill:#EEF2EE;}
	.st2{display:none;}
	.st3{display:inline;}
	.st4{fill:#0E263E;}
</style>
<g>
	<g>
		<path class="st0" d="M51.9,27.8c0,0,0,2.4-0.1,3.1C50.8,42.3,40.3,51,28.4,51C15.3,51,4.7,40.6,4.7,27.8S15.2,4.5,28.3,4.5
			c9.9,0,18.5,5.9,22,14.4h-6c-3.1-5.5-9.1-9.1-15.9-9.1C18.2,9.9,10,18,10,27.8s8.3,17.9,18.3,17.9c9,0,16.5-6.4,18-14.7
			c0,0,0.3-2.2,0.3-3c0-0.1,0-0.2,0-0.2H28.3v3.8h13.8c-2,6.4-7.4,10.2-13.8,10.2c-7.9,0-14.3-6.4-14.3-14s6.5-14,14.3-14
			c6,0,11.2,3.6,13.4,8.7l0,0h9.8l0,0h4.1C52.8,10.1,41.7,0.8,28.4,0.8c-15.4,0-27.8,12.1-27.8,27s12.4,27.1,27.7,27.1
			c14.2,0,26.4-10.3,27.4-23.8c0.1-0.8,0.1-3.1,0.1-3.1L51.9,27.8z"/>
	</g>
	<g>
		<g>
			<path class="st1" d="M93.1,20.7c-2-1.7-4.8-2.8-7.3-2.8c-6.2,0-9.9,4.5-9.9,10.3c0,4.7,2.8,9.3,9.9,9.3c2.2,0,4.2-0.5,6.5-2.2v-5
				h-7.3v-4.8h12.2v11.7c-2.8,3.1-6.4,5-11.4,5c-10.7,0-15.1-7-15.1-14.3c0-7.9,5-15.1,15.1-15.1c3.8,0,7.7,1.4,10.6,4.3L93.1,20.7z
				"/>
			<path class="st1" d="M105.5,33.7c0.3,2.4,2.4,4.2,6,4.2c1.9,0,4.3-0.7,5.3-1.9l3.1,3c-2.1,2.2-5.6,3.3-8.7,3.3
				c-7,0-11-4.2-11-10.5c0-6,4.2-10.3,10.7-10.3c6.7,0,10.9,4.1,10.2,12.2H105.5z M116.5,29.6c-0.3-2.6-2.3-3.8-5.2-3.8
				c-2.7,0-4.9,1.3-5.6,3.8H116.5z"/>
			<path class="st1" d="M132,16.6v5.6h5.6v4.2H132v8.5c0,1.9,1,2.8,2.6,2.8c0.8,0,1.6-0.2,2.4-0.6l1.4,4.2c-1.4,0.6-2.6,0.8-4.1,0.8
				c-4.4,0.1-7.2-2.3-7.2-7.2v-8.5h-3.7v-4.2h3.7v-5.1L132,16.6z"/>
			<path class="st1" d="M166.9,38.4c-2.9,2.8-6.7,4.2-10.8,4.2c-10.6,0-15.1-7.2-15.1-14.4c0-7.3,4.8-14.8,15.1-14.8
				c3.8,0,7.6,1.4,10.5,4.3L163,21c-1.9-1.7-4.4-2.7-6.9-2.7c-6.9,0-9.9,5-9.9,9.8c0,4.7,2.8,9.4,9.9,9.4c2.4,0,5.3-1,7.2-2.8
				L166.9,38.4z"/>
			<path class="st1" d="M188.3,32c0,5.7-4,10.2-10.5,10.2s-10.5-4.7-10.5-10.2s4-10.2,10.5-10.2C184.3,21.7,188.3,26.4,188.3,32z
				 M172.4,32c0,3,1.9,5.8,5.5,5.8c3.6,0,5.5-2.8,5.5-5.8c0-2.9-2.1-5.8-5.5-5.8C174.3,26.1,172.4,29.1,172.4,32z"/>
			<path class="st1" d="M197.3,16.6c0,3.8-5.9,3.8-5.9,0S197.3,12.8,197.3,16.6z M191.8,22.1v19.8h5V22.1
				C196.8,22.1,191.8,22.1,191.8,22.1z"/>
			<path class="st1" d="M216.1,41.8V31.5c0-3-1.6-5.2-4.9-5.2c-3,0-5.1,2.6-5.1,5.5v10.1h-5V22.1h4.4l0.3,2.7c2.1-2,4.1-2.9,6.6-2.9
				c4.8,0,8.5,3.5,8.5,9.7v10.3H216.1z"/>
			<path class="st1" d="M238.6,27.3c-1.4-1.3-3-1.7-5-1.7c-2.3,0-3.7,0.7-3.7,2c0,1.3,1.2,2,3.7,2.2c3.8,0.2,8.6,1,8.6,6.3
				c0,3.5-2.9,6.5-8.7,6.5c-3.1,0-6.4-0.5-9.3-3.5l2.4-3.5c1.4,1.5,4.7,2.7,7,2.8c1.9,0,3.6-0.9,3.6-2.3c0-1.4-1.2-2-4-2.1
				c-3.8-0.2-8.4-1.6-8.4-6.2s4.8-6.2,8.5-6.2c3.1,0,5.5,0.6,7.8,2.6L238.6,27.3z"/>
		</g>
	</g>
</g>
<g class="st2">
	<g class="st3">
		<path class="st0" d="M63.7,27.8c0,0,0,2.2-0.1,2.9C62.7,41.1,53.1,49,42.2,49c-12,0-21.6-9.5-21.6-21.2S30.2,6.6,42.2,6.6
			c9,0,16.8,5.4,20,13.1h-5.5c-2.9-5-8.3-8.3-14.6-8.3c-9.2,0-16.7,7.4-16.7,16.4s7.5,16.4,16.7,16.4c8.2,0,15.1-5.8,16.5-13.4
			c0,0,0.3-2,0.3-2.8c0-0.1,0-0.2,0-0.2H42.1v3.5h12.6c-1.8,5.8-6.8,9.4-12.6,9.4c-7.2,0-13.1-5.8-13.1-12.8s5.9-12.8,13.1-12.8
			c5.5,0,10.2,3.3,12.2,8l0,0h8.9l0,0h3.7c-2.3-11.5-12.5-20-24.7-20c-14,0-25.3,11.1-25.3,24.7s11.3,24.7,25.2,24.7
			c13,0,24.1-9.5,25.1-21.8c0.1-0.7,0.1-2.9,0.1-2.9L63.7,27.8z"/>
	</g>
	<g class="st3">
		<g>
			<path class="st4" d="M97.8,21.7c-1.7-1.5-4.1-2.4-6.3-2.4c-5.3,0-8.5,3.9-8.5,8.9c0,4,2.4,8,8.5,8c1.9,0,3.6-0.4,5.6-1.9V30h-6.3
				v-4.1h10.5V36c-2.4,2.7-5.5,4.3-9.8,4.3c-9.2,0-13-6-13-12.3c0-6.8,4.3-13,13-13c3.3,0,6.6,1.2,9.1,3.7L97.8,21.7z"/>
			<path class="st4" d="M108.5,32.9c0.3,2.1,2.1,3.6,5.2,3.6c1.6,0,3.7-0.6,4.6-1.6l2.7,2.6c-1.8,1.9-4.8,2.8-7.5,2.8
				c-6,0-9.5-3.6-9.5-9c0-5.2,3.6-8.9,9.2-8.9c5.8,0,9.4,3.5,8.8,10.5H108.5z M117.9,29.4c-0.3-2.2-2-3.3-4.5-3.3
				c-2.3,0-4.2,1.1-4.8,3.3H117.9z"/>
			<path class="st4" d="M131.3,18.2V23h4.8v3.6h-4.8v7.3c0,1.6,0.9,2.4,2.2,2.4c0.7,0,1.4-0.2,2.1-0.5l1.2,3.6
				c-1.2,0.5-2.2,0.7-3.5,0.7c-3.8,0.1-6.2-2-6.2-6.2v-7.3h-3.2V23h3.2v-4.4L131.3,18.2z"/>
			<path class="st4" d="M161.3,36.9c-2.5,2.4-5.8,3.6-9.3,3.6c-9.1,0-13-6.2-13-12.4c0-6.3,4.1-12.7,13-12.7c3.3,0,6.5,1.2,9,3.7
				l-3.1,2.9c-1.6-1.5-3.8-2.3-5.9-2.3c-5.9,0-8.5,4.3-8.5,8.4c0,4,2.4,8.1,8.5,8.1c2.1,0,4.6-0.9,6.2-2.4L161.3,36.9z"/>
			<path class="st4" d="M179.7,31.4c0,4.9-3.4,8.8-9,8.8s-9-4-9-8.8s3.4-8.8,9-8.8C176.2,22.6,179.7,26.6,179.7,31.4z M166,31.4
				c0,2.6,1.6,5,4.7,5c3.1,0,4.7-2.4,4.7-5c0-2.5-1.8-5-4.7-5C167.6,26.4,166,28.9,166,31.4z"/>
			<path class="st4" d="M187.4,18.2c0,3.3-5.1,3.3-5.1,0S187.4,14.9,187.4,18.2z M182.7,22.9v17h4.3v-17
				C187,22.9,182.7,22.9,182.7,22.9z"/>
			<path class="st4" d="M203.6,39.9V31c0-2.6-1.4-4.5-4.2-4.5c-2.6,0-4.4,2.2-4.4,4.7v8.7h-4.3v-17h3.8l0.3,2.3
				c1.8-1.7,3.5-2.5,5.7-2.5c4.1,0,7.3,3,7.3,8.3v8.9H203.6z"/>
			<path class="st4" d="M222.9,27.4c-1.2-1.1-2.6-1.5-4.3-1.5c-2,0-3.2,0.6-3.2,1.7s1,1.7,3.2,1.9c3.3,0.2,7.4,0.9,7.4,5.4
				c0,3-2.5,5.6-7.5,5.6c-2.7,0-5.5-0.4-8-3l2.1-3c1.2,1.3,4,2.3,6,2.4c1.6,0,3.1-0.8,3.1-2s-1-1.7-3.4-1.8
				c-3.3-0.2-7.2-1.4-7.2-5.3s4.1-5.3,7.3-5.3c2.7,0,4.7,0.5,6.7,2.2L222.9,27.4z"/>
		</g>
	</g>
</g>
</svg>
