<?xml version="1.0" encoding="utf-8"?>
<!-- Generator: Adobe Illustrator 22.1.0, SVG Export Plug-In . SVG Version: 6.00 Build 0)  -->
<svg version="1.1" id="Capa_1" xmlns:sketch="http://www.bohemiancoding.com/sketch/ns"
	 xmlns="http://www.w3.org/2000/svg" xmlns:xlink="http://www.w3.org/1999/xlink" x="0px" y="0px" viewBox="0 0 960 560"
	 style="enable-background:new 0 0 960 560;" xml:space="preserve">
<style type="text/css">
	.st0{display:none;}
	.st1{display:inline;}
</style>
<title>download 3</title>
<desc>Created with Sketch.</desc>
<g>
	<g>
		<ellipse class="st0" cx="474.7" cy="196.7" rx="92.5" ry="92.6"/>
		<path class="st0" d="M593.1,217.8C593.1,217.8,593.1,217.8,593.1,217.8C593.1,217.8,593.1,217.8,593.1,217.8L593.1,217.8z"/>
		<g>
			<path d="M629.3,196.7c0,0-0.2,15.8-0.6,21C622.4,294,553.5,352,474.9,352c-85.7,0-155.2-69.5-155.2-155.2S389.2,41.5,474.9,41.5
				c64.8,0,120.3,39.8,143.5,96.2h-38.9c-20.6-36.5-59.7-61.1-104.6-61.1c-66.3,0-120.1,53.8-120.1,120.1s53.8,120.1,120.1,120.1
				c59.1,0,108.2-42.2,118.2-98.4c0-0.1,2.4-14.6,2.4-20.5c0-0.8,0-1.2,0-1.2l-120.4,0v25.7l90.3-0.2c-13,42.4-48.9,68.7-90.6,68.8
				c-52,0.1-94.2-42.2-94.2-94.2s42.2-94.2,94.2-94.2c39.5,0,73.2,24.3,87.2,58.7v0.3H626c0,0,0,0,0,0h26.6
				C636.3,78.3,563,15.4,474.9,15.4c-100.1,0-181.3,81.2-181.3,181.3S374.8,378,474.9,378c93,0,173.1-69.7,180-160.2
				c0.4-5.2,0.8-21,0.8-21H629.3z"/>
		</g>
		<g class="st0">
			<line class="st1" x1="474.7" y1="-0.1" x2="474.7" y2="384.2"/>
		</g>
	</g>
	<g>
		<g>
			<path d="M204.6,459.6c-8.1-7.7-20.1-12-30.5-12c-25.7,0-41.4,19.6-41.4,44.3c0,19.7,11.5,40.2,41.4,40.2c9.4,0,17.7-2.1,27.1-9.6
				v-21.3h-30.7v-20.3h51.5v50.6c-11.8,13.6-26.8,21.6-47.9,21.6c-45.1,0-63.5-29.7-63.5-61.3c0-33.8,21.1-65,63.5-65
				c16.1,0,32.3,6.2,44.6,18.4L204.6,459.6z"/>
			<path d="M256.8,515.5c1.4,10.5,10.5,18,25.2,18c7.7,0,17.8-2.9,22.7-7.9l13.4,13.2c-8.9,9.3-23.5,13.7-36.4,13.7
				c-29.2,0-46.5-18-46.5-45.1c0-25.7,17.5-44.3,45-44.3c28.3,0,46,17.5,42.7,52.3H256.8z M302.7,498.2c-1.4-11-10-16.5-22-16.5
				c-11.3,0-20.6,5.5-23.7,16.5H302.7z"/>
			<path d="M368.5,441.9v24h23.3v18h-23.5v36.6c0,8.1,4.5,12,11,12c3.3,0,7-1,10.1-2.6l5.8,17.8c-6,2.4-11,3.4-17.3,3.6
				c-18.4,0.7-30.4-9.8-30.4-30.9V484h-15.8v-18h15.8v-21.8L368.5,441.9z"/>
			<path d="M514.8,535.3c-12.4,12.2-28.3,17.8-45.6,17.8c-44.6,0-63.5-30.7-63.7-62c-0.2-31.4,20.2-63.3,63.7-63.3
				c16.3,0,31.7,6.2,44.1,18.4l-15.1,14.6c-7.9-7.7-18.5-11.3-29-11.3c-29,0-41.5,21.6-41.4,41.7c0.2,19.9,11.7,40.7,41.4,40.7
				c10.5,0,22.3-4.3,30.2-12.2L514.8,535.3z"/>
			<path d="M604.8,508.2c0,24.4-16.6,44.1-44.1,44.1s-43.9-19.7-43.9-44.1c0-24.2,16.8-44.1,43.8-44.1
				C587.4,464.1,604.8,484,604.8,508.2z M537.7,508.2c0,12.9,7.7,24.9,23,24.9s23-12,23-24.9c0-12.7-8.9-25.1-23-25.1
				C545.6,483.1,537.7,495.5,537.7,508.2z"/>
			<path d="M642,441.9c0,16.3-24.7,16.3-24.7,0S642,425.6,642,441.9z M619.2,465.4v85h20.9v-85H619.2z"/>
			<path d="M721.3,550.4v-44.3c0-12.9-7-22.7-20.4-22.7c-12.9,0-21.6,10.8-21.6,23.7v43.3h-20.8v-84.8h18.7l1.4,11.5
				c8.6-8.4,17.2-12.7,27.8-12.7c19.9,0,35.9,14.9,35.9,41.5v44.5H721.3z"/>
			<path d="M815.5,488.3c-6-5.7-12.9-7.6-20.9-7.6c-10,0-15.4,3.1-15.4,8.4c0,5.5,5,8.6,15.8,9.3c16,1,36.2,4.6,36.2,27.1
				c0,14.9-12.2,27.8-36.4,27.8c-13.4,0-26.8-2.2-39.1-15.1l10.3-14.9c6,6.7,19.7,11.7,29.2,11.8c7.9,0.2,15.3-3.9,15.3-10.1
				c0-5.8-4.8-8.2-16.8-8.9c-16-1.2-35-7-35-26.3c0-19.6,20.2-26.4,35.7-26.4c13.2,0,23.2,2.6,32.9,11.2L815.5,488.3z"/>
		</g>
	</g>
</g>
</svg>
