<?xml version="1.0" encoding="utf-8"?>
<!-- Generator: Adobe Illustrator 22.1.0, SVG Export Plug-In . SVG Version: 6.00 Build 0)  -->
<svg version="1.1" id="Layer_1" xmlns="http://www.w3.org/2000/svg" xmlns:xlink="http://www.w3.org/1999/xlink" x="0px" y="0px"
	 viewBox="0 0 234 102" style="enable-background:new 0 0 234 102;" xml:space="preserve">
<style type="text/css">
	.st0{display:none;fill:#90BAC0;}
	.st1{fill:#90BAC0;}
	.st2{display:none;}
	.st3{display:inline;fill:none;}
</style>
<g>
	<g>
		<ellipse class="st0" cx="117.4" cy="37.2" rx="13.3" ry="13.3"/>
		<path class="st0" d="M134.4,40.2L134.4,40.2L134.4,40.2z"/>
		<g>
			<path class="st1" d="M160.3,51.2c0,0,0,4.5-0.2,5.8c-1.8,21.2-21,37.5-43,37.5c-23.9,0-43.4-19.5-43.4-43.4S93.2,7.8,117.1,7.8
				c18.1,0,33.7,11.1,40.1,26.8h-10.9c-5.8-10.1-16.7-17.1-29.2-17.1c-18.5,0-33.5,15-33.5,33.5s15,33.5,33.5,33.5
				c16.5,0,30.2-11.9,33.1-27.4c0,0,0.6-4.1,0.6-5.6c0-0.2,0-0.4,0-0.4h-33.7v7.2h25.3c-3.7,11.9-13.6,19.3-25.3,19.3
				c-14.6,0-26.3-11.9-26.3-26.3s11.9-26.3,26.3-26.3c11.1,0,20.4,6.8,24.3,16.3l0,0h17.9l0,0h7.4C162,18.1,141.6,0.4,117.1,0.4
				C89.1,0.4,66.5,23,66.5,51s22.6,50.6,50.6,50.6c25.9,0,48.2-19.5,50.2-44.7c0.2-1.6,0.2-5.8,0.2-5.8h-7.2V51.2z"/>
		</g>
		<g class="st2">
			<line class="st3" x1="117.4" y1="8.9" x2="117.4" y2="64"/>
		</g>
	</g>
</g>
</svg>
