<?xml version="1.0" encoding="utf-8"?>
<!-- Generator: Adobe Illustrator 22.1.0, SVG Export Plug-In . SVG Version: 6.00 Build 0)  -->
<svg version="1.1" id="Layer_1" xmlns="http://www.w3.org/2000/svg" xmlns:xlink="http://www.w3.org/1999/xlink" x="0px" y="0px"
	 viewBox="0 0 234 102" style="enable-background:new 0 0 234 102;" xml:space="preserve">
<style type="text/css">
	.st0{display:none;fill:#90BAC0;}
	.st1{fill:#90BAC0;}
	.st2{display:none;}
	.st3{display:inline;fill:none;}
	.st4{fill:#FFFFFF;}
</style>
<g>
	<g>
		<ellipse class="st0" cx="117.4" cy="37.2" rx="13.3" ry="13.3"/>
		<path class="st0" d="M134.4,40.2L134.4,40.2L134.4,40.2z"/>
		<g>
			<path class="st1" d="M139.6,37.2c0,0,0,2.3-0.1,3c-0.9,10.9-10.8,19.3-22.1,19.3c-12.3,0-22.3-10-22.3-22.3s10-22.3,22.3-22.3
				c9.3,0,17.3,5.7,20.6,13.8h-5.6c-3-5.2-8.6-8.8-15-8.8c-9.5,0-17.2,7.7-17.2,17.2s7.7,17.2,17.2,17.2c8.5,0,15.5-6.1,17-14.1
				c0,0,0.3-2.1,0.3-2.9c0-0.1,0-0.2,0-0.2h-17.3v3.7h13c-1.9,6.1-7,9.9-13,9.9c-7.5,0-13.5-6.1-13.5-13.5s6.1-13.5,13.5-13.5
				c5.7,0,10.5,3.5,12.5,8.4l0,0h9.2l0,0h3.8c-2.4-11.9-12.9-21-25.5-21c-14.4,0-26,11.6-26,26s11.6,26,26,26
				c13.3,0,24.8-10,25.8-23c0.1-0.8,0.1-3,0.1-3L139.6,37.2L139.6,37.2z"/>
		</g>
		<g class="st2">
			<line class="st3" x1="117.4" y1="8.9" x2="117.4" y2="64"/>
		</g>
	</g>
	<g>
		<g>
			<path class="st4" d="M78.7,74.9c-1.2-1.1-2.9-1.7-4.4-1.7c-3.7,0-5.9,2.8-5.9,6.4c0,2.8,1.6,5.8,5.9,5.8c1.4,0,2.5-0.3,3.9-1.4
				v-3.1h-4.4V78h7.4v7.3c-1.7,1.9-3.8,3.1-6.9,3.1c-6.5,0-9.1-4.3-9.1-8.8c0-4.9,3-9.3,9.1-9.3c2.3,0,4.6,0.9,6.4,2.6L78.7,74.9z"
				/>
			<path class="st4" d="M86.2,82.9c0.2,1.5,1.5,2.6,3.6,2.6c1.1,0,2.6-0.4,3.3-1.1l1.9,1.9c-1.3,1.3-3.4,2-5.2,2
				c-4.2,0-6.7-2.6-6.7-6.5c0-3.7,2.5-6.4,6.5-6.4c4.1,0,6.6,2.5,6.1,7.5H86.2z M92.8,80.4c-0.2-1.6-1.4-2.4-3.2-2.4
				c-1.6,0-3,0.8-3.4,2.4H92.8z"/>
			<path class="st4" d="M102.2,72.3v3.4h3.3v2.6h-3.4v5.2c0,1.2,0.6,1.7,1.6,1.7c0.5,0,1-0.1,1.5-0.4l0.8,2.6
				c-0.9,0.3-1.6,0.5-2.5,0.5c-2.6,0.1-4.4-1.4-4.4-4.4v-5.2h-2.3v-2.6h2.3v-3.1L102.2,72.3z"/>
			<path class="st4" d="M123.2,85.7c-1.8,1.7-4.1,2.6-6.6,2.6c-6.4,0-9.1-4.4-9.1-8.9s2.9-9.1,9.1-9.1c2.3,0,4.6,0.9,6.3,2.6
				l-2.2,2.1c-1.1-1.1-2.7-1.6-4.2-1.6c-4.2,0-6,3.1-5.9,6c0,2.9,1.7,5.8,5.9,5.8c1.5,0,3.2-0.6,4.3-1.7L123.2,85.7z"/>
			<path class="st4" d="M136.1,81.8c0,3.5-2.4,6.3-6.3,6.3s-6.3-2.8-6.3-6.3s2.4-6.3,6.3-6.3C133.6,75.5,136.1,78.4,136.1,81.8z
				 M126.5,81.8c0,1.8,1.1,3.6,3.3,3.6c2.2,0,3.3-1.7,3.3-3.6c0-1.8-1.3-3.6-3.3-3.6C127.6,78.2,126.5,80,126.5,81.8z"/>
			<path class="st4" d="M141.4,72.3c0,2.3-3.5,2.3-3.5,0S141.4,70,141.4,72.3z M138.1,75.7v12.2h3V75.7H138.1z"/>
			<path class="st4" d="M152.8,87.9v-6.4c0-1.8-1-3.3-2.9-3.3c-1.8,0-3.1,1.6-3.1,3.4v6.2h-3V75.7h2.7l0.2,1.7
				c1.2-1.2,2.5-1.8,4-1.8c2.9,0,5.1,2.1,5.1,6V88L152.8,87.9L152.8,87.9z"/>
			<path class="st4" d="M166.3,79c-0.9-0.8-1.8-1.1-3-1.1c-1.4,0-2.2,0.4-2.2,1.2c0,0.8,0.7,1.2,2.3,1.3c2.3,0.1,5.2,0.7,5.2,3.9
				c0,2.1-1.7,4-5.2,4c-1.9,0-3.8-0.3-5.6-2.2l1.5-2.1c0.9,1,2.8,1.7,4.2,1.7c1.1,0,2.2-0.6,2.2-1.5c0-0.8-0.7-1.2-2.4-1.3
				c-2.3-0.2-5-1-5-3.8s2.9-3.8,5.1-3.8c1.9,0,3.3,0.4,4.7,1.6L166.3,79z"/>
		</g>
	</g>
</g>
</svg>
