<?xml version="1.0" encoding="utf-8"?>
<!-- Generator: Adobe Illustrator 22.1.0, SVG Export Plug-In . SVG Version: 6.00 Build 0)  -->
<svg version="1.1" id="Layer_1" xmlns="http://www.w3.org/2000/svg" xmlns:xlink="http://www.w3.org/1999/xlink" x="0px" y="0px"
	 viewBox="0 0 234 150" style="enable-background:new 0 0 234 150;" xml:space="preserve">
<style type="text/css">
	.st0{display:none;}
	.st1{display:inline;fill:#8FB9BF;}
	.st2{fill:#8FB9BF;}
	.st3{fill:#EEF2EE;}
</style>
<g id="Artboard2">
	<g>
		<g>
			<g class="st0">
				<ellipse class="st1" cx="117.4" cy="48.4" rx="23.7" ry="23.7"/>
			</g>
			<g class="st0">
				<polygon class="st1" points="147.7,53.8 147.7,53.8 147.7,53.8 				"/>
			</g>
			<g>
				<path class="st2" d="M157,48.4c0,0-0.1,4-0.2,5.4c-1.6,19.5-19.3,34.4-39.4,34.4c-22,0-39.8-17.8-39.8-39.8S95.5,8.7,117.4,8.7
					c16.6,0,30.8,10.2,36.8,24.7h-10c-5.3-9.3-15.3-15.7-26.8-15.7c-17,0-30.8,13.8-30.8,30.8s13.8,30.8,30.8,30.8
					c15.1,0,27.7-10.8,30.3-25.2c0,0,0.6-3.7,0.6-5.3c0-0.2,0-0.3,0-0.3l-30.9,0V55l23.2-0.1c-3.3,10.9-12.5,17.6-23.2,17.6
					c-13.3,0-24.1-10.8-24.1-24.2s10.8-24.2,24.1-24.2c10.1,0,18.8,6.2,22.4,15v0.1h16.4c0,0,0,0,0,0h6.8C158.8,18.1,140,2,117.4,2
					C91.8,2,71,22.8,71,48.4s20.8,46.5,46.5,46.5c23.8,0,44.4-17.9,46.1-41.1c0.1-1.3,0.2-5.4,0.2-5.4H157z"/>
			</g>
		</g>
		<g>
			<g>
				<path class="st3" d="M48.5,124.7c-2.1-2-5.1-3.1-7.8-3.1c-6.6,0-10.6,5-10.6,11.3c0,5.1,2.9,10.3,10.6,10.3
					c2.4,0,4.5-0.5,6.9-2.5v-5.5h-7.9v-5.2H53v13c-3,3.5-6.9,5.5-12.3,5.5c-11.6,0-16.3-7.6-16.3-15.7c0-8.7,5.4-16.7,16.3-16.7
					c4.1,0,8.3,1.6,11.4,4.7L48.5,124.7z"/>
				<path class="st3" d="M62.4,139.1c0.4,2.7,2.7,4.6,6.5,4.6c2,0,4.6-0.7,5.8-2l3.4,3.4c-2.3,2.4-6,3.5-9.3,3.5
					c-7.5,0-11.9-4.6-11.9-11.6c0-6.6,4.5-11.3,11.5-11.3c7.3,0,11.8,4.5,11,13.4H62.4z M74.2,134.6c-0.4-2.8-2.6-4.2-5.6-4.2
					c-2.9,0-5.3,1.4-6.1,4.2H74.2z"/>
				<path class="st3" d="M90.1,120.2v6.2h6v4.6h-6v9.4c0,2.1,1.1,3.1,2.8,3.1c0.8,0,1.8-0.3,2.6-0.7l1.5,4.6
					c-1.5,0.6-2.8,0.9-4.4,0.9c-4.7,0.2-7.8-2.5-7.8-7.9V131h-4v-4.6h4v-5.6L90.1,120.2z"/>
				<path class="st3" d="M127.6,144.1c-3.2,3.1-7.3,4.6-11.7,4.6c-11.4,0-16.3-7.9-16.3-15.9c0-8.1,5.2-16.2,16.3-16.2
					c4.2,0,8.1,1.6,11.3,4.7l-3.9,3.7c-2-2-4.8-2.9-7.4-2.9c-7.4,0-10.6,5.5-10.6,10.7c0,5.1,3,10.4,10.6,10.4
					c2.7,0,5.7-1.1,7.7-3.1L127.6,144.1z"/>
				<path class="st3" d="M151.6,137.2c0,6.2-4.3,11.3-11.3,11.3c-7,0-11.3-5.1-11.3-11.3c0-6.2,4.3-11.3,11.2-11.3
					C147.1,125.9,151.6,131,151.6,137.2z M134.4,137.2c0,3.3,2,6.4,5.9,6.4s5.9-3.1,5.9-6.4c0-3.3-2.3-6.4-5.9-6.4
					C136.4,130.8,134.4,133.9,134.4,137.2z"/>
				<path class="st3" d="M161.1,120.2c0,4.2-6.3,4.2-6.3,0C154.8,116,161.1,116,161.1,120.2z M155.3,126.2V148h5.4v-21.8H155.3z"/>
				<path class="st3" d="M181.4,148v-11.3c0-3.3-1.8-5.8-5.2-5.8c-3.3,0-5.5,2.8-5.5,6.1V148h-5.3v-21.7h4.8l0.4,2.9
					c2.2-2.2,4.4-3.3,7.1-3.3c5.1,0,9.2,3.8,9.2,10.6V148H181.4z"/>
				<path class="st3" d="M205.6,132.1c-1.5-1.5-3.3-1.9-5.4-1.9c-2.6,0-4,0.8-4,2.2c0,1.4,1.3,2.2,4,2.4c4.1,0.3,9.3,1.2,9.3,7
					c0,3.8-3.1,7.1-9.3,7.1c-3.4,0-6.9-0.6-10-3.9l2.6-3.8c1.5,1.7,5.1,3,7.5,3c2,0,3.9-1,3.9-2.6c0-1.5-1.2-2.1-4.3-2.3
					c-4.1-0.3-9-1.8-9-6.7c0-5,5.2-6.8,9.1-6.8c3.4,0,5.9,0.7,8.4,2.9L205.6,132.1z"/>
			</g>
		</g>
	</g>
</g>
</svg>
