<?xml version="1.0" encoding="utf-8"?>
<!-- Generator: Adobe Illustrator 22.1.0, SVG Export Plug-In . SVG Version: 6.00 Build 0)  -->
<svg version="1.1" id="Layer_1" xmlns="http://www.w3.org/2000/svg" xmlns:xlink="http://www.w3.org/1999/xlink" x="0px" y="0px"
	 viewBox="0 0 247 248" style="enable-background:new 0 0 247 248;" xml:space="preserve">
<style type="text/css">
	.st0{opacity:0.5;fill:#8FBAC0;enable-background:new    ;}
	.st1{fill:#10263E;}
	.st2{fill:#FFFFFF;}
	.st3{fill:none;stroke:#FFFFFF;stroke-width:2;stroke-linecap:square;}
	.st4{fill:#A0A9B3;}
	.st5{display:none;fill:#10263E;}
	.st6{fill:#0F263E;}
	.st7{clip-path:url(#SVGID_2_);fill:#0F263E;}
	.st8{clip-path:url(#SVGID_4_);fill:#0F263E;}
	.st9{clip-path:url(#SVGID_6_);fill:#0F263E;}
	.st10{clip-path:url(#SVGID_8_);fill:#FFFFFF;}
	.st11{clip-path:url(#SVGID_10_);fill:#0F263E;}
	.st12{clip-path:url(#SVGID_12_);fill:#10263E;}
	.st13{clip-path:url(#SVGID_16_);fill:#FFFFFF;}
	.st14{clip-path:url(#SVGID_18_);fill:#FFFFFF;}
	.st15{opacity:0.85;}
	.st16{fill:#F89B4F;}
</style>
<g>
	<path class="st0" d="M60.6,18.2c-36.5,21.4-61,61.1-61,106.5c0,68.2,55.3,123.5,123.5,123.5s123.5-55.3,123.5-123.5
		c0-33.4-13.3-63.8-34.9-86c3.1,6,4.9,12.8,4.9,20c0,12.6-5.4,24-14.1,32.2c-5,4.7-11,8.4-17.8,10.7v112.1c0,5-4,9-9,9H69.6
		c-5,0-9-4-9-9L60.6,18.2"/>
	<path class="st1" d="M69.6,1.2h106.2c4.4,0,8,3.6,8,8v204.5c0,4.4-3.6,8-8,8H69.6c-4.4,0-8-3.6-8-8V9.2C61.6,4.8,65.2,1.2,69.6,1.2
		"/>
	<path class="st2" d="M69.6,1.2v1h106.2c1.9,0,3.7,0.8,5,2.1s2,3,2,4.9v204.5c0,1.9-0.8,3.7-2.1,4.9c-1.3,1.3-3,2-4.9,2.1H69.6
		c-1.9,0-3.7-0.8-4.9-2.1c-1.3-1.3-2-3-2.1-4.9V9.2c0-1.9,0.8-3.7,2.1-4.9c1.3-1.3,3-2,4.9-2.1V1.2v-1c-5,0-9,4-9,9v204.5
		c0,5,4,9,9,9h106.2c5,0,9-4,9-9V9.2c0-5-4-9-9-9H69.6V1.2"/>
	<line class="st3" x1="62.2" y1="188.2" x2="183.1" y2="188.2"/>
	<line class="st3" x1="111.9" y1="204.2" x2="134.8" y2="204.2"/>
	<path class="st4" d="M186.1,18.5c6.9,4.1,13.4,8.9,19.4,14.2c-1.3-1.7-2.8-3.2-4.3-4.7C196.9,24,191.8,20.8,186.1,18.5"/>
	<path id="ORIGINAL_CIRCLE_HALF_WITH_BELL_SHAPE" class="st5" d="M184.8,71.3v0.4h0.4L184.8,71.3 M184.8,18.1v25.7
		c1.6,2.6,2.5,5.7,2.5,8.9v15.1l5.7,5.5v2.8h-8.2v23.5c6.2-2.2,11.8-5.6,16.4-10c8.3-7.9,13.5-18.7,13.5-30.7c0-9.8-3.3-18.9-9.1-26
		c-5.8-7.2-7.8-8.4-17.9-13.8C187.2,18.8,185.2,18.1,184.8,18.1"/>
	<path class="st1" d="M180.7,71.9v0.4h0.5L180.7,71.9 M180.7,73v3.9v24.6c7.4-2.3,14.1-5.9,19.5-10.5c9.9-8.3,15.1-19.6,15.1-32.2
		c0-10.3-4-21.8-10.9-29.2c-4.9-6.1-13.4-9.3-20.3-12.4c-0.6-0.3-3-1-3.5-1 M180.7,16.2v26.9"/>
	<path class="st6" d="M174.4,78.8L174.4,78.8c0,3-2.6,5.5-5.7,5.5c-3.2,0-5.7-2.5-5.7-5.5H174.4 M148.4,69.2h-24.5
		c2,7.8,6.3,14.7,12.1,20.2c8.3,7.9,19.8,12.8,32.5,12.8c4.9,0,9.7-0.7,14.2-2.1v-24h-38.5v-2.8L148.4,69.2 M182.8,69.2h-28.4v0.2
		l-1.3,1.2l-1.1,1h30.7v-2.4 M168.8,38.8h-0.3c-0.8,0-3.3,0.6-3.3,0.6c-6.3,1.4-10.8,6.9-10.8,13.2v14.6h28.2v-17
		c-1-5.2-5.1-9.5-10.5-10.7C172.1,39.5,169.7,38.8,168.8,38.8 M164.3,35.2h-34.4c-4.6,6.8-7.3,14.8-7.3,23.5c0,2.9,0.3,5.8,0.9,8.5
		H150V52.7C150,44.2,156.1,37,164.3,35.2L164.3,35.2 M182.6,35.2h-9.7l0,0c3.8,0.8,7.2,2.8,9.7,5.5V35.2 M168.6,15.2
		c-12.7,0-24.2,4.9-32.5,12.8c-1.7,1.6-3.3,3.4-4.7,5.2h33c0.1-2.3,1.9-4,4.3-4c2.4,0,4.2,1.7,4.3,4h9.8V17.4
		C178.3,15.9,173.5,15.2,168.6,15.2L168.6,15.2"/>
	<path class="st1" d="M184.8,76.1h-2v24.1c0.7-0.2,1.3-0.4,2-0.7V76.1 M182.8,69.3L182.8,69.3l-0.1,2.5h2v-0.4l-0.6-0.6l-1.3-1.2
		L182.8,69.3 M182.8,17.4v15.9h1.8v10.2c0.1,0.1,0.1,0.2,0.2,0.3V18C184.1,17.8,183.4,17.5,182.8,17.4"/>
	<g>
		<g>
			<g>
				<defs>
					<polyline id="SVGID_1_" points="60.6,33.2 184.6,33.2 184.6,69.2 60.6,69.2 60.6,33.2 					"/>
				</defs>
				<clipPath id="SVGID_2_">
					<use xlink:href="#SVGID_1_"  style="overflow:visible;"/>
				</clipPath>
				<polyline class="st7" points="113.6,52.2 72.8,52.2 72.8,55.2 113.6,55.2 113.6,52.2 				"/>
			</g>
		</g>
		<g>
			<g>
				<defs>
					<polyline id="SVGID_3_" points="60.6,33.2 184.6,33.2 184.6,69.2 60.6,69.2 60.6,33.2 					"/>
				</defs>
				<clipPath id="SVGID_4_">
					<use xlink:href="#SVGID_3_"  style="overflow:visible;"/>
				</clipPath>
				<polyline class="st8" points="106.1,43.2 82.1,43.2 82.1,46.2 106.1,46.2 106.1,43.2 				"/>
			</g>
		</g>
		<g>
			<g>
				<defs>
					<polyline id="SVGID_5_" points="60.6,33.2 184.6,33.2 184.6,69.2 60.6,69.2 60.6,33.2 					"/>
				</defs>
				<clipPath id="SVGID_6_">
					<use xlink:href="#SVGID_5_"  style="overflow:visible;"/>
				</clipPath>
				<path class="st9" d="M128.8,33.2h-7.2v1h-59v35h59.3c-0.2-0.7-0.3-1.3-0.4-2H62.6v-32h64.9C127.9,34.5,128.4,34,128.8,33.2"/>
			</g>
		</g>
		<g>
			<g>
				<defs>
					<polyline id="SVGID_7_" points="60.6,33.2 184.6,33.2 184.6,69.2 60.6,69.2 60.6,33.2 					"/>
				</defs>
				<clipPath id="SVGID_8_">
					<use xlink:href="#SVGID_7_"  style="overflow:visible;"/>
				</clipPath>
				<polyline class="st10" points="62.6,34.2 60.6,34.2 61.6,34.2 60.6,34.2 60.6,69.2 62.6,69.2 62.6,34.2 				"/>
			</g>
		</g>
		<g>
			<g>
				<defs>
					<polyline id="SVGID_9_" points="60.6,33.2 184.6,33.2 184.6,69.2 60.6,69.2 60.6,33.2 					"/>
				</defs>
				<clipPath id="SVGID_10_">
					<use xlink:href="#SVGID_9_"  style="overflow:visible;"/>
				</clipPath>
				<path class="st11" d="M150,67.2h-26.5c0.1,0.7,0.3,1.3,0.5,2h24.5l1.6-1.5v-0.5 M182.6,50.2v17.1h-28.2v0.5v1.5h28.4v-18
					C182.7,50.8,182.7,50.5,182.6,50.2 M164.3,33.2h-33c-0.5,0.7-1,1.3-1.4,2h34.4V33.2C164.3,33.3,164.3,33.2,164.3,33.2
					 M182.8,33.2H173v0.1v1.9h9.7v5.6c0.1,0.1,0.1,0.1,0.2,0.2L182.8,33.2"/>
			</g>
		</g>
		<g>
			<g>
				<defs>
					<polyline id="SVGID_11_" points="60.6,33.2 184.6,33.2 184.6,69.2 60.6,69.2 60.6,33.2 					"/>
				</defs>
				<clipPath id="SVGID_12_">
					<use xlink:href="#SVGID_11_"  style="overflow:visible;"/>
				</clipPath>
				<path class="st12" d="M182.8,51.2v18h0.1v-1.5v-15C182.8,52.2,182.8,51.8,182.8,51.2 M184.6,33.2h-1.8V41
					c0.7,0.8,1.3,1.6,1.8,2.4V33.2"/>
			</g>
		</g>
		<g>
			<g>
				<defs>
					<polyline id="SVGID_13_" points="60.6,33.2 184.6,33.2 184.6,69.2 60.6,69.2 60.6,33.2 					"/>
				</defs>
				<clipPath id="SVGID_14_">
					<use xlink:href="#SVGID_13_"  style="overflow:visible;"/>
				</clipPath>
			</g>
		</g>
		<g>
			<g>
				<defs>
					<polyline id="SVGID_15_" points="60.6,33.2 184.6,33.2 184.6,69.2 60.6,69.2 60.6,33.2 					"/>
				</defs>
				<clipPath id="SVGID_16_">
					<use xlink:href="#SVGID_15_"  style="overflow:visible;"/>
				</clipPath>
				<polyline class="st13" points="121.6,33.2 62.6,33.2 62.6,34.2 121.6,34.2 121.6,33.2 				"/>
			</g>
			<g>
				<g>
					<defs>
						<polyline id="SVGID_17_" points="60.6,33.2 184.6,33.2 184.6,69.2 60.6,69.2 60.6,33.2 						"/>
					</defs>
					<clipPath id="SVGID_18_">
						<use xlink:href="#SVGID_17_"  style="overflow:visible;"/>
					</clipPath>
					<polyline class="st14" points="62.6,33.2 60.6,33.2 60.6,34.2 62.6,34.2 62.6,33.2 					"/>
				</g>
			</g>
		</g>
	</g>
	<g class="st15">
		<path class="st16" d="M184.8,16v1.8c0.5,0.3,0.9,0.5,1.3,0.8c5.7,2.2,10.8,5.5,15,9.4c1.6,1.5,3,3.1,4.3,4.7
			c2.2,1.9,4.2,3.9,6.3,6c-2.3-4.5-5.5-8.6-9.2-12.1C197.6,22,191.5,18.3,184.8,16"/>
		<path class="st16" d="M124,69.2h-2.1c2.1,8.4,6.6,15.8,12.8,21.7c8.7,8.2,20.7,13.3,33.9,13.3c4.9,0,9.7-0.7,14.2-2v-2.1
			c-4.5,1.4-9.2,2.1-14.2,2.1c-12.7,0-24.2-4.9-32.5-12.8C130.2,83.9,126,77.1,124,69.2 M129.9,35.2h-2.4
			c-4.4,6.9-6.9,14.9-6.9,23.5c0,2.9,0.3,5.8,0.8,8.5h2c-0.6-2.8-0.9-5.6-0.9-8.5C122.6,50,125.3,42,129.9,35.2 M168.6,13.2
			L168.6,13.2L168.6,13.2c-13.2,0-25.2,5.1-33.9,13.3c-2.2,2-4.1,4.3-5.8,6.7h2.5c1.4-1.9,3-3.6,4.7-5.2
			c8.3-7.9,19.8-12.8,32.5-12.8l0,0c4.9,0,9.7,0.7,14.2,2.1v-2.1C178.3,13.9,173.5,13.2,168.6,13.2"/>
		<path class="st16" d="M182.8,15.2v2.1c0.7,0.2,1.3,0.4,2,0.7v-0.3V16C184.1,15.6,183.4,15.4,182.8,15.2"/>
		<path class="st16" d="M205.5,32.8c5.7,7.3,9.1,16.3,9.1,26c0,12-5.1,22.9-13.5,30.7c-4.6,4.4-10.2,7.8-16.4,10v2.1
			c6.7-2.3,12.8-6,17.8-10.7c8.7-8.2,14.1-19.6,14.1-32.2c0-7.2-1.8-14-4.9-20C209.7,36.7,207.6,34.7,205.5,32.8 M184.8,17.8V18
			c0.5,0.2,0.9,0.3,1.3,0.5C185.7,18.2,185.2,18,184.8,17.8"/>
		<path class="st16" d="M184.8,99.4c-0.7,0.2-1.3,0.5-2,0.7v2.1c0.7-0.2,1.3-0.4,2-0.6V99.4"/>
		<path class="st16" d="M123.5,67.2h-2c0.1,0.7,0.3,1.3,0.4,2h2.1C123.8,68.6,123.6,67.9,123.5,67.2 M131.3,33.2h-2.5
			c-0.5,0.7-0.9,1.3-1.4,2h2.4C130.3,34.5,130.8,34,131.3,33.2"/>
		<path class="st16" d="M184.7,43.5v27.9l0.4,0.4h-0.4V76h8.4v-2.7l-5.8-5.6V52.4C187.3,49.1,186.4,46.1,184.7,43.5"/>
		<path class="st16" d="M174.4,78.8h-11.5c0,3,2.6,5.5,5.7,5.5C171.8,84.2,174.4,81.8,174.4,78.8 M154.4,69.2h-6l-4.2,4V76h38.5
			v-4.2H152l1.1-1l1.3-1.2L154.4,69.2 M172.9,35.2h-8.6l0,0C156.1,37,150,44.1,150,52.5v14.7h4.4V52.7c0-6.3,4.4-11.8,10.8-13.2
			c0,0,2.5-0.6,3.3-0.6h0.3c1,0,3.3,0.6,3.3,0.6c5.5,1.2,9.5,5.5,10.5,10.7v-9.3C180.1,38.2,176.7,36.2,172.9,35.2L172.9,35.2
			 M168.6,29.2c-2.4,0-4.2,1.7-4.3,4h8.6C172.9,31,171,29.2,168.6,29.2"/>
		<path class="st16" d="M184.8,71.8h-2.1V76h2.1V71.8 M184.7,43.7v25.8h-1.8v0.2l1.3,1.2l0.6,0.6V44
			C184.8,43.9,184.8,43.8,184.7,43.7"/>
		<path class="st16" d="M154.4,67.2H150v0.5l-1.6,1.5h6v-1.5V67.2 M182.6,40.8v9.3c0.1,0.4,0.1,0.8,0.2,1.1V41
			C182.7,41,182.7,41,182.6,40.8 M172.9,33.2h-8.6v0.1v1.9h8.6V33.2L172.9,33.2"/>
		<path class="st16" d="M182.7,41.1v10.3c0,0.4,0.1,0.9,0.1,1.4v15.3v1.5h1.9V43.5C184.1,42.6,183.3,41.8,182.7,41.1"/>
	</g>
</g>
</svg>
